<svg width="300" height="56" viewBox="0 0 300 30" fill="none" xmlns="http://www.w3.org/2000/svg">
<rect width="300" height="56"/>
<path d="M0 23.3438H5.51695V15.272H13.5475C18.8033 15.272 21.8719 12.5598 21.8719 7.81356C21.8719 3.00273 18.8033 0.419737 13.5475 0.419737H0V23.3438ZM13.0252 5.19828C15.1798 5.19828 16.1917 6.13462 16.1917 7.84585C16.1917 9.46023 15.1471 10.4934 13.0252 10.4934H5.51695V5.19828H13.0252Z" fill="#F1463B"/>
<path d="M37.0637 20.89V23.3438H42.2868V6.61893H36.9984V8.94363C36.7046 8.39474 35.105 6.29606 31.6447 6.29606C27.3682 6.29606 23.9405 9.58938 23.9405 14.9814C23.9405 20.4057 27.3682 23.699 31.612 23.699C35.1703 23.699 36.7699 21.4389 37.0637 20.89ZM37.0637 14.9814C37.0637 17.3707 35.5294 19.211 33.2116 19.211C30.8612 19.211 29.2942 17.3707 29.2942 14.9814C29.2942 12.5921 30.8612 10.7517 33.2116 10.7517C35.5294 10.7517 37.0637 12.5921 37.0637 14.9814Z" fill="#F1463B"/>
<path d="M58.1116 12.463H63.2694C63.0083 10.0414 60.7558 6.19919 54.7818 6.19919C49.8525 6.19919 46.0004 9.68624 46.0004 14.9814C46.0004 20.3088 49.8525 23.7636 54.8471 23.7636C60.8211 23.7636 63.0735 19.8568 63.2694 17.5321H58.1769C57.981 17.9195 57.0996 19.2433 54.9777 19.2433C52.7578 19.2433 51.3215 17.4029 51.3215 14.9814C51.3215 12.5921 52.7578 10.7517 54.945 10.7517C57.0016 10.7517 57.8504 12.0109 58.1116 12.463Z" fill="#F1463B"/>
<path d="M77.7812 12.463H82.9391C82.6779 10.0414 80.4255 6.19919 74.4515 6.19919C69.5221 6.19919 65.6701 9.68624 65.6701 14.9814C65.6701 20.3088 69.5221 23.7636 74.5168 23.7636C80.4907 23.7636 82.7432 19.8568 82.9391 17.5321H77.8465C77.6507 17.9195 76.7693 19.2433 74.6474 19.2433C72.4275 19.2433 70.9911 17.4029 70.9911 14.9814C70.9911 12.5921 72.4275 10.7517 74.6147 10.7517C76.6713 10.7517 77.5201 12.0109 77.7812 12.463Z" fill="#F1463B"/>
<path d="M91.7016 20.9546C91.9628 21.4712 93.6603 23.699 97.2512 23.699C101.593 23.699 105.021 20.4057 105.021 14.9814C105.021 9.58938 101.593 6.29606 97.2512 6.29606C93.7256 6.29606 91.9954 8.62075 91.7669 9.10506V6.61893H86.4785V29.8013H91.7016V20.9546ZM91.7016 14.9814C91.7016 12.5598 93.2686 10.7517 95.7169 10.7517C98.1326 10.7517 99.6669 12.5598 99.6669 14.9814C99.6669 17.4029 98.1326 19.211 95.7169 19.211C93.2686 19.211 91.7016 17.4029 91.7016 14.9814Z" fill="#F1463B"/>
<path d="M117.054 6.19919C111.733 6.19919 107.783 9.7831 107.783 14.9814C107.783 20.1474 111.733 23.7636 117.054 23.7636C122.342 23.7636 126.325 20.1474 126.325 14.9814C126.325 9.7831 122.342 6.19919 117.054 6.19919ZM117.054 19.211C114.671 19.211 113.071 17.3707 113.071 14.9814C113.071 12.5921 114.671 10.7517 117.054 10.7517C119.437 10.7517 121.004 12.5921 121.004 14.9814C121.004 17.3707 119.437 19.211 117.054 19.211Z" fill="#F1463B"/>
<path d="M141.32 23.3438H146.609V6.61893H141.32V13.593C141.32 13.593 139.982 13.819 137.925 13.819C135.575 13.819 134.955 12.9473 134.955 10.9777V6.61893H129.666V11.1392C129.666 16.2406 132.343 18.1456 137.403 18.1456C139.623 18.1456 141.32 17.855 141.32 17.855V23.3438Z" fill="#F1463B"/>
<path d="M151.289 23.3438H156.577V16.0469L163.563 23.3438H170.484L161.964 14.5616L170.027 6.61893H163.367L156.577 13.4316V6.61893H151.289V23.3438Z" fill="#F1463B"/>
<path d="M184.124 20.89V23.3438H189.347V6.61893H184.059V8.94363C183.765 8.39474 182.165 6.29606 178.705 6.29606C174.429 6.29606 171.001 9.58938 171.001 14.9814C171.001 20.4057 174.429 23.699 178.672 23.699C182.231 23.699 183.83 21.4389 184.124 20.89ZM184.124 14.9814C184.124 17.3707 182.59 19.211 180.272 19.211C177.922 19.211 176.355 17.3707 176.355 14.9814C176.355 12.5921 177.922 10.7517 180.272 10.7517C182.59 10.7517 184.124 12.5921 184.124 14.9814Z" fill="#F1463B"/>
<path d="M211.308 0C205.791 0 202.396 3.26103 202.396 8.55618V15.2074C202.396 20.5671 205.823 23.7636 211.308 23.7636C216.824 23.7636 220.22 20.5671 220.22 15.2074V8.55618C220.22 3.26103 216.857 0 211.308 0ZM211.308 18.9204C208.99 18.9204 207.815 17.3061 207.815 15.046V8.71761C207.815 6.45749 208.99 4.84312 211.308 4.84312C213.658 4.84312 214.801 6.45749 214.801 8.71761V15.046C214.801 17.3061 213.658 18.9204 211.308 18.9204Z" fill="#F1463B"/>
<path d="M225.221 16.0469H236.255V11.2037H225.221V16.0469Z" fill="#F1463B"/>
<path d="M250.137 0C244.62 0 241.225 3.26103 241.225 8.55618V15.2074C241.225 20.5671 244.653 23.7636 250.137 23.7636C255.654 23.7636 259.049 20.5671 259.049 15.2074V8.55618C259.049 3.26103 255.686 0 250.137 0ZM250.137 18.9204C247.819 18.9204 246.644 17.3061 246.644 15.046V8.71761C246.644 6.45749 247.819 4.84312 250.137 4.84312C252.487 4.84312 253.63 6.45749 253.63 8.71761V15.046C253.63 17.3061 252.487 18.9204 250.137 18.9204Z" fill="#F1463B"/>
<path d="M264.051 16.0469H275.084V11.2037H264.051V16.0469Z" fill="#F1463B"/>
<path d="M300 17.1769V12.6567H295.528V0.419737H289.293L278.716 13.6576V17.1769H290.239V23.3438H295.528V17.1769H300ZM284.396 12.6567L290.239 5.19828V12.6567H284.396Z" fill="#F1463B"/>
</svg>
